<?xml version="1.0" encoding="UTF-8" standalone="no"?>
<!-- Created with Inkscape (http://www.inkscape.org/) -->

<svg
   width="200mm"
   height="200mm"
   viewBox="0 0 200 200"
   version="1.1"
   id="svg5"
   xml:space="preserve"
   inkscape:version="1.2.2 (732a01da63, 2022-12-09)"
   sodipodi:docname="caracal.svg"
   inkscape:export-filename="caracal.png"
   inkscape:export-xdpi="65.769325"
   inkscape:export-ydpi="65.769325"
   xmlns:inkscape="http://www.inkscape.org/namespaces/inkscape"
   xmlns:sodipodi="http://sodipodi.sourceforge.net/DTD/sodipodi-0.dtd"
   xmlns:xlink="http://www.w3.org/1999/xlink"
   xmlns="http://www.w3.org/2000/svg"
   xmlns:svg="http://www.w3.org/2000/svg"><sodipodi:namedview
     id="namedview7"
     pagecolor="#505050"
     bordercolor="#ffffff"
     borderopacity="1"
     inkscape:showpageshadow="0"
     inkscape:pageopacity="0"
     inkscape:pagecheckerboard="1"
     inkscape:deskcolor="#505050"
     inkscape:document-units="px"
     showgrid="false"
     inkscape:zoom="0.70710678"
     inkscape:cx="326.68333"
     inkscape:cy="274.35743"
     inkscape:window-width="1920"
     inkscape:window-height="1017"
     inkscape:window-x="-8"
     inkscape:window-y="-8"
     inkscape:window-maximized="1"
     inkscape:current-layer="layer3" /><defs
     id="defs2"><linearGradient
       id="linearGradient38146"
       inkscape:swatch="solid"><stop
         style="stop-color:#000000;stop-opacity:1;"
         offset="0"
         id="stop38144" /></linearGradient><linearGradient
       id="linearGradient38133"
       inkscape:swatch="solid"><stop
         style="stop-color:#000000;stop-opacity:1;"
         offset="0"
         id="stop38131" /></linearGradient><linearGradient
       id="linearGradient38066"
       inkscape:swatch="solid"><stop
         style="stop-color:#000000;stop-opacity:1;"
         offset="0"
         id="stop38064" /></linearGradient><linearGradient
       id="linearGradient38054"
       inkscape:swatch="solid"><stop
         style="stop-color:#000000;stop-opacity:1;"
         offset="0"
         id="stop38052" /></linearGradient><linearGradient
       id="linearGradient36086"
       inkscape:swatch="solid"><stop
         style="stop-color:#000000;stop-opacity:1;"
         offset="0"
         id="stop36084" /></linearGradient><linearGradient
       id="linearGradient36080"
       inkscape:swatch="solid"><stop
         style="stop-color:#000000;stop-opacity:1;"
         offset="0"
         id="stop36078" /></linearGradient><clipPath
       clipPathUnits="userSpaceOnUse"
       id="clipPath35914"><path
         style="display:inline;opacity:1;fill:#ff00ff;fill-opacity:1;stroke:none;stroke-width:0.264583"
         d="m 156.68652,50.89298 c -15.13799,8.36853 -24.69758,23.693329 -31.97876,41.859359 5.94668,-6.7017 11.96635,-10.420064 18.06586,-10.8741 -0.32397,-10.643243 5.7295,-20.881824 13.9129,-30.985259 z"
         id="path35916"
         sodipodi:nodetypes="cccc" /></clipPath><clipPath
       clipPathUnits="userSpaceOnUse"
       id="clipPath35920"><rect
         style="opacity:1;fill:#ff00ff;fill-opacity:1;stroke:none;stroke-width:0.264583"
         id="rect35922"
         width="33.488873"
         height="19.176588"
         x="130.21371"
         y="50.607483" /></clipPath><linearGradient
       inkscape:collect="always"
       xlink:href="#linearGradient38066"
       id="linearGradient38068"
       x1="39.267235"
       y1="144.95602"
       x2="147.65987"
       y2="144.95602"
       gradientUnits="userSpaceOnUse"
       gradientTransform="translate(10.476965,-36.295202)" /><linearGradient
       inkscape:collect="always"
       xlink:href="#linearGradient38133"
       id="linearGradient38135"
       x1="45.353313"
       y1="109.52172"
       x2="64.483574"
       y2="109.52172"
       gradientUnits="userSpaceOnUse" /><linearGradient
       inkscape:collect="always"
       xlink:href="#linearGradient38146"
       id="linearGradient38148"
       x1="122.44352"
       y1="109.5559"
       x2="141.49992"
       y2="109.5559"
       gradientUnits="userSpaceOnUse" /></defs><g
     inkscape:groupmode="layer"
     id="layer3"
     inkscape:label="Ebene 3"
     style="display:inline"
     transform="translate(24.60625,12.964583)"><rect
       style="display:none;fill:#fef4e6;fill-opacity:1;stroke-width:0.510938"
       id="rect3255"
       width="202.05577"
       height="200.93323"
       x="-26.102951"
       y="-13.338759" /><path
       style="display:none;opacity:0.26;fill:#000000;stroke:#000000;stroke-width:0.264583"
       d="m 152.9779,12.859553 c -40.5644,24.302529 -9.99027,44.550172 -24.58906,81.796273 2.01609,1.34406 6.67169,5.817234 10.03635,13.298174 -4.67325,4.29688 -4.40563,5.89296 -14.42725,25.21634 -9.69456,18.69277 -39.894515,32.4927 -39.894515,32.4927 0,0 -31.610959,-16.28592 -41.776324,-35.5036 -7.65272,-20.19817 -12.294534,-21.95453 -12.294534,-21.95453 3.180417,-4.71332 5.283152,-10.234894 9.659992,-14.050894 C 26.016205,64.434385 56.744015,35.941145 15.228946,11.981374 14.970688,11.448577 24.560535,9.1845638 58.134361,41.33771 l -5.64545,-2.007271 c 5.616525,9.039719 9.144021,19.408816 18.065438,26.345426 6.013888,-1.16623 10.680429,-2.75591 27.976333,-0.37636 7.403658,-6.37495 12.138698,-16.085693 16.936348,-25.718157 l -5.39454,3.136361 c 25.61284,-29.079021 43.2609,-31.043242 42.90541,-29.858156 z"
       id="path917-7"
       sodipodi:nodetypes="cccscccccccccccc" /></g><g
     inkscape:groupmode="layer"
     id="layer2"
     inkscape:label="Orange fur"
     style="display:inline;opacity:1"><g
       id="path917"
       transform="translate(10.476965,-36.295202)"><path
         style="color:#000000;fill:#ff9529;stroke-width:0.264583;-inkscape-stroke:none"
         d="m 134.8635,82.925376 c -9.07533,26.811614 -10.42132,35.950894 1.70168,54.755204 2.01609,1.34406 7.73002,7.14015 11.09468,14.62109 -4.67325,4.29688 -4.40563,5.89296 -14.42725,25.21634 -9.69456,18.69277 -39.894517,32.4927 -39.894517,32.4927 0,0 -31.610959,-16.28592 -41.776324,-35.5036 -7.65272,-20.19817 -12.294534,-21.95453 -12.294534,-21.95453 1.565512,-5.17472 15.691846,-21.70616 22.330889,-30.86178 -0.629093,-4.62876 -5.153978,-22.332917 -6.27272,-26.345433 -0.634622,-1.787342 -4.844762,-12.456802 -1.881817,-14.552715 l 8.279992,2.885452 c 5.616525,9.039719 9.144021,19.408816 18.065438,26.345426 6.013888,-1.16623 10.680429,-2.75591 27.976333,-0.37636 7.40366,-6.37495 12.1387,-16.085693 16.93635,-25.718157 l 3.76363,-3.638178 c 1.47904,-1.429732 6.75366,1.449455 6.39817,2.634541 z"
         id="path38072" /></g><g
       id="path7613"
       transform="translate(10.476965,-36.295202)"><path
         style="color:#000000;fill:#c2660a;stroke-width:0.264583;-inkscape-stroke:none"
         d="m 134.85482,82.876595 c -0.51224,0.122458 -13.89316,19.348235 -14.79496,21.125325 l -4.26538,8.40517 c -2.28856,-0.6548 -3.00894,-1.98409 -8.02896,-2.76004 -17.295891,-2.37954 -22.21334,-1.16622 -28.227222,0 -2.27233,0.33974 -4.29458,1.13629 -7.276559,2.38384 L 54.321749,83.176319 c -2.962942,2.09591 0.368935,10.381942 1.003556,12.169283 1.118741,4.012512 8.027227,20.587278 8.65632,25.216028 -0.635424,7.5548 -2.085099,20.76153 -3.80907,30.58005 -6.860292,0.76969 -17.800751,0.74029 -20.889681,1.39526 0,0 4.626124,1.77209 12.278837,21.97024 10.165355,19.21766 41.776261,35.50377 41.776261,35.50377 0,0 30.200168,-13.80035 39.894718,-32.4931 10.02161,-19.32336 9.75379,-20.91916 14.42703,-25.21603 -12.52282,-0.58095 -17.17806,-0.91429 -21.32686,-1.25471 -0.24451,-8.89515 -2.66306,-25.78665 -2.61896,-32.11638 0.10315,-14.79921 4.79314,-17.22609 11.1497,-36.005559 0.0111,-0.03703 0.008,-0.05253 -0.009,-0.04858 z M 50.181526,155.3124 65.739562,155.17757 c 0.365373,-12.50172 2.083299,-24.5526 8.427648,-35.06133 2.860659,4.6595 5.703643,9.40739 10.848294,2.64693 l 8.448244,16.86742 8.514852,-17.01012 c 2.99096,4.65916 6.35626,7.21267 11.99073,-2.99792 4.89227,11.50979 7.51286,23.3441 7.72159,35.52296 l 14.67824,0.0418 C 132.09289,181.09337 93.222696,174.78617 92.836032,193.82727 93.449966,177.2418 55.058651,177.7909 50.181526,155.3124 Z"
         id="path38060" /></g><path
       id="path38074"
       style="color:#000000;display:inline;opacity:1;fill:url(#linearGradient38068);-inkscape-stroke:none"
       d="m 139.83439,42.956751 c -1.34599,0.0729 -2.05163,1.39858 -3.00502,2.161272 -0.74183,0.784258 -1.64183,1.45405 -2.28577,2.30904 -3.55497,7.078861 -7.00172,14.275304 -11.95789,20.439455 -1.38814,1.71618 -2.90067,3.33629 -4.56382,4.78945 -7.91871,-1.01882 -16.03332,-1.90095 -23.945468,-0.35964 -1.214342,0.22171 -2.421754,0.48047 -3.63266,0.72097 -5.56769,-4.36651 -9.224737,-10.578377 -12.502438,-16.729369 -1.716894,-3.179519 -3.386878,-6.389491 -5.308109,-9.454225 -2.941737,-1.026301 -5.883696,-2.051988 -8.826172,-3.076172 -1.581486,0.960402 -1.692654,3.035584 -1.553022,4.690447 0.354195,3.873184 1.781114,7.532181 3.018549,11.184025 2.072358,7.815144 4.092967,15.729404 5.756147,23.649574 0.07581,0.66642 0.365257,1.38639 0.285296,2.02708 -6.304892,8.57773 -13.275033,16.654162 -19.293218,25.442432 -1.20253,1.86512 -2.508487,3.73858 -3.084846,5.91074 1.44065,0.47099 2.312409,1.83907 3.233127,2.95552 3.350864,4.65019 5.668035,9.99173 7.854764,15.26518 0.752133,1.76437 1.262267,3.64273 2.338924,5.25141 4.240887,7.03694 10.263717,12.79504 16.574879,17.96796 7.691632,6.20117 16.012667,11.61407 24.719947,16.27773 0.50519,0.0775 1.01645,-0.42498 1.52355,-0.58212 9.13561,-4.54003 17.89598,-9.93658 25.71397,-16.51411 5.67298,-4.81718 10.89484,-10.40786 14.13488,-17.18066 2.96262,-5.67772 5.74245,-11.50351 8.67094,-17.16163 1.18411,-2.31601 2.73892,-4.55928 4.73957,-6.31076 0.61056,-0.30932 0.42159,-0.77629 0.12992,-1.26305 -2.37304,-5.00334 -5.66835,-9.59349 -9.72408,-13.36882 -0.64952,-0.61562 -1.47768,-1.04123 -1.83944,-1.90446 -3.82074,-6.046602 -7.23328,-12.650552 -7.93313,-19.876872 -0.64225,-6.22617 0.64236,-12.56566 2.25238,-18.558959 1.3526,-5.042171 3.0447,-9.996167 4.67035,-14.945579 0.1062,-1.187245 -1.10242,-1.914813 -1.96712,-2.482582 -1.26064,-0.731617 -2.70939,-1.351054 -4.19499,-1.273277 z m 0.48438,1.318359 c 1.59722,0.210557 3.18346,0.938244 4.29687,2.113282 0.054,0.583431 -0.37014,1.21939 -0.50064,1.822934 -2.46432,7.464916 -4.99448,14.973327 -6.11492,22.781362 -0.82836,5.67429 -0.46391,11.55948 1.44443,16.9882 1.69134,4.94137 4.3036,9.50414 7.12035,13.880162 2.58487,1.90269 4.64275,4.42608 6.57227,6.9668 1.60789,2.21205 3.04197,4.55657 4.19726,7.03711 -2.60154,2.29648 -4.30747,5.36544 -5.83041,8.43387 -3.04773,6.03448 -5.96427,12.14441 -9.19481,18.08868 -3.9777,6.70535 -9.76393,12.04605 -15.89079,16.80948 -7.0012,5.32187 -14.63613,9.93847 -22.58595,13.77539 -7.688281,-4.14184 -15.023332,-8.87537 -21.941403,-14.21094 -6.119096,-4.79671 -12.034076,-10.14066 -16.560546,-16.49023 -1.355257,-1.95635 -2.691918,-3.96759 -3.429519,-6.24918 -2.323245,-5.78741 -4.778915,-11.60021 -8.343919,-16.75082 -0.871909,-1.19626 -1.801412,-2.38495 -2.990234,-3.28321 1.465179,-3.31816 3.742163,-6.18998 5.83463,-9.12695 5.331894,-7.195232 11.075217,-14.074682 16.368495,-21.296872 -0.856611,-5.25227 -2.224566,-10.40302 -3.464174,-15.57437 -0.970595,-3.82954 -1.88802,-7.677143 -2.992164,-11.469183 -1.0864,-2.968707 -2.103749,-5.914743 -2.613975,-9.071686 -0.138226,-1.290313 -0.426653,-2.877688 0.344378,-4.122074 0.55891,-0.0043 1.240124,0.403483 1.846199,0.558105 1.954704,0.681479 3.909407,1.362958 5.864111,2.044437 4.455908,7.232309 7.653501,15.317687 13.315202,21.773701 1.516475,1.7341 3.19221,3.33674 5.032454,4.72435 3.748161,-0.76013 7.514451,-1.55978 11.355645,-1.61888 5.69355,-0.15331 11.3779,0.47548 16.9842,1.24583 6.07799,-5.17602 10.16719,-12.1962 13.82689,-19.18464 1.21145,-2.28251 2.30209,-4.642037 3.52238,-6.910224 1.25639,-1.185652 2.46297,-2.434551 3.75034,-3.580918 0.24373,-0.1068 0.51552,-0.117748 0.77735,-0.103516 z" /></g><g
     inkscape:groupmode="layer"
     id="layer6"
     inkscape:label="Eyes"
     style="display:inline"><path
       style="display:inline;opacity:1;fill:#ffffff;fill-opacity:1;stroke:none;stroke-width:0.264583"
       d="m 87.756893,134.19737 c 2.207253,-1.14002 2.954413,-4.03216 3.512724,-7.15091 L 74.709632,111.11375 70.067817,110.9883 c 1.423755,7.58727 -2.649297,14.99131 17.689076,23.20907 z"
       id="path25145"
       sodipodi:nodetypes="ccccc" /><path
       style="display:inline;opacity:1;fill:#ffffff;fill-opacity:1;stroke:none;stroke-width:0.264583"
       d="m 121.28519,134.31821 c -2.21013,-1.27191 -3.85312,-3.12313 -4.67377,-5.64084 l 18.72689,-19.3017 3.53784,3.14321 c -0.07,9.00472 -7.16573,17.13714 -17.59096,21.79933 z"
       id="path25147"
       sodipodi:nodetypes="ccccc" /><path
       style="opacity:1;fill:#000000;fill-opacity:1;stroke:none;stroke-width:0.264583"
       d="m 145.88884,108.36905 c 1.96785,1.72629 -2.77821,4.18884 -7.05588,4.39539 -0.79735,-0.62855 -1.19391,-1.06782 -3.27021,-1.58516 -0.0302,0.0525 -0.39308,0.3868 -0.45534,0.73136 -2.92103,16.16584 -9.91747,11.79697 -13.24086,13.71916 -1.75489,0.84499 -3.45507,3.67953 -5.68854,6.15156 -2.58165,0.95045 -3.02975,-0.37436 -3.38078,-1.29149 -0.14573,-2.51084 2.7146,-7.40589 2.6565,-7.87939 -0.0236,-2.37541 -0.16397,-7.68579 0.32741,-8.22547 4.51351,-6.20276 10.35355,-8.06414 16.80104,-7.9375 5.43992,-0.18977 7.61104,3.95355 13.30666,1.92154 z"
       id="path25230"
       sodipodi:nodetypes="cccsccccccc" /><path
       style="display:inline;opacity:1;fill:#000000;fill-opacity:1;stroke:none;stroke-width:0.264583"
       d="m 73.128281,111.55965 c 0.981286,8.55638 6.020431,13.5748 14.055037,14.7252 1.440748,0.28538 2.691127,2.28408 3.961935,4.09892 0.623104,0.45876 1.338505,0.84369 2.39908,0.95247 1.021555,-0.0891 2.06702,-0.14234 2.057974,-1.77734 -0.966845,-2.33839 -2.288243,-4.32222 -2.899873,-7.01582 0.49098,-5.72621 -0.01792,-7.18022 -0.467722,-8.88671 -3.820633,-3.42537 -5.259322,-6.40289 -16.082979,-6.72385 -3.779144,0.36268 -5.144706,0.86347 -7.03256,2.20231 -3.141576,0.92516 -4.247512,0.50947 -6.263056,0.66255 -2.015544,0.15304 3.211895,3.4105 7.185202,3.29772 0.941155,-0.45201 1.426206,-1.35516 3.086962,-1.53545 z"
       id="path25232"
       sodipodi:nodetypes="ccccccccczcc" /><path
       style="display:inline;opacity:1;fill:#ffc34c;fill-opacity:1;stroke:none;stroke-width:0.264583"
       d="m 76.986986,112.06611 c -0.354135,11.63708 9.8988,12.39035 12.254306,7.95127 1.056567,-2.56549 -2.192944,-3.69098 -2.19829,-3.83532 z"
       id="path25259"
       sodipodi:nodetypes="cccc" /><path
       style="display:inline;opacity:1;fill:#ffc34c;fill-opacity:1;stroke:none;stroke-width:0.264583"
       d="m 130.88126,112.05144 c 1.54768,7.27231 -5.15232,11.31297 -9.81288,9.63368 -4.66056,-1.67929 -2.06376,-5.49377 0.83262,-5.98546 z"
       id="path25261"
       sodipodi:nodetypes="czcc" /><ellipse
       style="display:inline;opacity:1;fill:#000000;fill-opacity:1;stroke:none;stroke-width:0.264583"
       id="path25315"
       cx="85.35405"
       cy="115.80714"
       rx="2.1828125"
       ry="2.1497395" /><ellipse
       style="display:inline;opacity:1;fill:#000000;fill-opacity:1;stroke:none;stroke-width:0.264583"
       id="ellipse35889"
       cx="123.65249"
       cy="115.41026"
       rx="2.1828125"
       ry="2.1497395" /></g><g
     inkscape:groupmode="layer"
     id="layer7"
     inkscape:label="Mouth"
     style="display:inline"><path
       style="display:inline;opacity:1;fill:#ffffff;fill-opacity:1;stroke:none;stroke-width:0.264583"
       d="m 94.029613,161.79734 c 5.355657,5.38443 12.207957,5.61373 20.574527,0.62727 10.9815,-5.30996 9.27046,-13.50025 8.60092,-21.39933 -9.72064,3.648 -23.453102,2.58308 -38.835437,-0.42974 -0.87634,8.32768 -2.157698,16.77998 9.65999,21.2018 z"
       id="path25204"
       sodipodi:nodetypes="ccccc" /><path
       style="display:inline;opacity:1;fill:#000000;fill-opacity:1;stroke:none;stroke-width:0.264583"
       d="m 77.863559,137.45356 9.266062,3.65217 c -2.204802,7.58646 1.608158,12.7189 5.018178,17.55525 1.613531,0.73284 6.607265,-2.17454 9.910901,-3.26181 -0.0628,-6.35977 -5.838792,-7.95857 -9.53454,-11.2909 -1.434697,-2.21636 -0.566675,-4.43273 -0.627271,-6.64909 3.972723,-0.38159 10.961571,3.0515 12.361721,4.00063 0.82353,-1.34579 9.64341,-4.69794 11.47463,-4.12608 0.61073,2.13272 0.95843,4.26545 0.62727,6.39817 -3.92751,3.06132 -8.86658,5.41721 -10.07311,11.24655 3.69586,1.82551 6.49221,3.52269 9.19493,3.93344 5.38055,-6.64084 7.65054,-12.7332 5.82221,-17.24683 l 9.59299,-3.98633 c 10.44012,5.87079 -7.21074,23.86048 -17.25812,25.32343 -0.24207,-0.63506 -0.42091,-1.33743 -1.23387,-2.20085 -5.74905,-1.39428 -10.95527,-1.07077 -16.370848,-0.13072 -0.45286,0.68753 -1.004492,1.25159 -1.129947,1.9625 -10.467594,1.07529 -25.993323,-21.75671 -17.041186,-25.17953 z"
       id="path25206"
       sodipodi:nodetypes="cccccccccccccccccc" /></g><g
     inkscape:groupmode="layer"
     id="layer5"
     inkscape:label="Inner ear"
     style="display:inline" /><g
     inkscape:groupmode="layer"
     id="layer4"
     inkscape:label="Black ear fluff"
     style="display:inline"><g
       id="path13053"
       transform="translate(10.476965,-36.295202)"><path
         style="color:#000000;fill:#131d39;stroke-width:0.264583;-inkscape-stroke:none"
         d="m 50.558133,141.26169 c 1.829572,-5.01872 5.439161,-11.01644 13.925442,-19.69635 -2.901386,-31.4681 -7.822881,-31.119475 -11.91817,-43.783596 l -6.52363,1.254546 c 7.42712,20.690186 -8.24157,30.0952 4.516358,62.2254 z"
         id="path38139" /><path
         id="path38141"
         style="color:#000000;display:inline;fill:url(#linearGradient38135);-inkscape-stroke:none"
         d="m 52.556641,77.109375 c -2.467472,0.474485 -4.934739,0.95004 -7.402344,1.423828 1.421195,3.704856 2.277668,7.77893 2.319647,11.704956 0.114442,6.886053 -1.833093,13.612691 -2.469456,20.471871 -0.854347,7.83299 0.07481,15.79778 2.344345,23.32511 0.902993,3.08815 2.034766,6.10356 3.233198,9.08791 1.30917,-3.99463 3.320775,-7.72875 5.798862,-11.11632 2.626243,-3.6343 5.64704,-6.97532 8.790982,-10.20204 -0.837182,-8.55486 -1.786293,-17.16753 -4.223483,-25.439755 -1.266431,-4.481916 -3.410661,-8.630409 -5.40933,-12.814154 -0.976046,-2.121081 -1.829597,-4.299949 -2.519531,-6.53125 -0.154297,0.02995 -0.308593,0.0599 -0.46289,0.08984 z m -0.1875,2.132813 c 1.916824,5.622534 5.226984,10.661335 6.958257,16.357934 1.946388,6.068548 2.937584,12.452778 3.725171,18.782048 0.288804,2.32458 0.520004,4.62562 0.742353,6.94986 -4.902361,5.09378 -9.6475,10.53307 -12.695547,16.97321 -0.209305,0.2143 -0.414191,1.38141 -0.589609,0.92718 -2.709566,-7.2198 -4.499514,-14.85326 -4.484375,-22.55664 -0.05138,-6.02338 1.166537,-11.93524 2.093689,-17.897679 0.858831,-5.397948 1.027749,-10.992594 -0.362931,-16.318849 -0.24462,-0.982865 -0.528243,-1.956927 -0.857711,-2.91433 1.74414,-0.335287 3.488281,-0.670573 5.232421,-1.00586 0.07943,0.234375 0.158855,0.46875 0.238282,0.703126 z" /></g><g
       id="path13055"
       style="display:inline"
       transform="translate(10.476965,-36.295202)"><path
         style="color:#000000;fill:#131e3a;stroke-width:0.264583;-inkscape-stroke:none"
         d="m 136.09755,142.20824 c -3.65307,-7.59601 -7.99399,-15.43022 -13.65403,-21.01926 2.7534,-27.866205 8.19633,-32.423236 12.79635,-44.285417 l 4.64182,3.763635 c -5.00536,12.865116 8.66645,33.111982 -3.78414,61.541042 z"
         id="path38152" /><path
         id="path38154"
         style="color:#000000;fill:url(#linearGradient38148);-inkscape-stroke:none"
         d="m 134.6875,76.498047 c -2.47724,6.400169 -6.00449,12.360297 -8.07101,18.924769 -2.74415,8.414144 -3.97675,17.228694 -4.85868,26.006874 6.10363,6.05815 10.20955,13.76089 13.9125,21.41433 0.27057,0.70334 0.53822,1.24938 0.77652,0.21568 3.68595,-8.15222 5.68064,-17.0678 5.71058,-26.02015 0.10543,-7.63443 -1.2541,-15.16991 -2.26692,-22.707729 -0.54951,-4.601243 -1.02904,-9.477921 0.77553,-13.878696 -1.9056,-1.547028 -3.8126,-3.092335 -5.71875,-4.638672 -0.0866,0.227865 -0.17318,0.455729 -0.25977,0.683594 z m 4.42578,4.396484 c -1.62142,4.684509 -1.01646,9.743569 -0.41277,14.554538 1.11928,7.897331 2.45401,15.771151 2.06883,23.766631 -0.23505,5.93301 -1.34254,11.87996 -3.27459,17.50832 -0.44499,1.30634 -0.93248,2.59856 -1.45959,3.87364 -3.47499,-7.02698 -7.35863,-14.01667 -12.9043,-19.64258 0.9242,-8.92867 2.22422,-17.95856 5.1875,-26.447268 1.95355,-5.698719 4.94953,-10.953818 7.19922,-16.529296 1.19857,0.972005 2.39713,1.94401 3.5957,2.916015 z" /></g><path
       style="display:inline;opacity:1;fill:#000000;fill-opacity:1;stroke:none;stroke-width:0.264583"
       d="M 34.940578,19.908383 C 45.262912,21.983465 56.887411,26.623418 78.096902,50.142899 73.044818,47.958409 69.509623,45.599526 56.550699,44.996404 53.509404,34.536155 45.282243,26.718447 34.940578,19.908383 Z"
       id="path7418"
       sodipodi:nodetypes="cccc" /><path
       style="display:inline;opacity:1;fill:#000000;fill-opacity:1;stroke:none;stroke-width:0.264583"
       d="m 172.56409,20.15929 c -16.91858,3.598974 -30.52556,15.476918 -42.77996,30.736336 7.64014,-4.680176 15.06623,-7.239194 21.03372,-5.897834 3.59435,-9.470778 10.97593,-17.555107 21.74624,-24.838502 z"
       id="path7528"
       sodipodi:nodetypes="cccc" /></g></svg>
